<svg width="395" height="395" viewBox="0 0 395 395" fill="none" xmlns="http://www.w3.org/2000/svg">
<g filter="url(#filter0_bd_1_3587)">
<circle cx="197.5" cy="193.5" r="77.5" fill="white" fill-opacity="0.28" shape-rendering="crispEdges"/>
</g>
<path d="M140.922 224.889L142.929 223.82L141.493 221.125L142.766 220.447L144.202 223.142L146.323 222.012L144.704 218.973L146.011 218.277L148.485 222.92L140.471 227.191L137.996 222.547L139.303 221.851L140.922 224.889Z" fill="white"/>
<path d="M142.752 209.388L140.414 212.164L143.857 212.963L144.463 214.924L139.249 213.544L135.81 217.638L135.192 215.64L137.518 212.868L134.092 212.077L133.486 210.116L138.683 211.489L142.135 207.39L142.752 209.388Z" fill="white"/>
<path d="M134.491 197.358C134.974 197.311 135.438 197.383 135.883 197.575C136.327 197.758 136.702 198.082 137.009 198.548C137.314 199.006 137.503 199.605 137.575 200.347L137.723 201.86L141.188 201.522L141.364 203.333L132.339 204.211L132.015 200.888C131.947 200.19 132.01 199.583 132.203 199.068C132.397 198.553 132.693 198.155 133.092 197.872C133.49 197.581 133.956 197.41 134.491 197.358ZM136.122 200.567C136.073 200.067 135.925 199.707 135.677 199.487C135.421 199.269 135.086 199.179 134.672 199.22C133.793 199.305 133.401 199.839 133.497 200.822L133.636 202.257L136.261 202.002L136.122 200.567Z" fill="white"/>
<path d="M139.48 190.723L139.707 187.744L141.145 187.853L140.78 192.646L131.738 191.958L131.876 190.144L139.48 190.723Z" fill="white"/>
<path d="M142.799 180.268C142.576 181.087 142.179 181.786 141.608 182.367C141.037 182.947 140.358 183.346 139.572 183.563C138.778 183.777 137.95 183.767 137.089 183.533C136.237 183.301 135.527 182.892 134.959 182.306C134.383 181.719 133.996 181.03 133.799 180.24C133.601 179.45 133.613 178.645 133.837 177.826C134.062 176.999 134.459 176.299 135.028 175.727C135.599 175.147 136.281 174.753 137.073 174.547C137.859 174.33 138.678 174.338 139.531 174.57C140.391 174.805 141.11 175.216 141.686 175.804C142.256 176.381 142.639 177.064 142.837 177.854C143.035 178.644 143.022 179.449 142.799 180.268ZM141.232 179.841C141.376 179.314 141.385 178.819 141.26 178.354C141.127 177.887 140.87 177.48 140.489 177.134C140.107 176.787 139.624 176.535 139.039 176.375C138.454 176.216 137.913 176.19 137.417 176.297C136.913 176.402 136.489 176.623 136.146 176.961C135.803 177.298 135.559 177.73 135.416 178.257C135.273 178.783 135.262 179.283 135.385 179.756C135.509 180.221 135.762 180.627 136.144 180.973C136.517 181.317 136.996 181.568 137.581 181.728C138.166 181.887 138.711 181.914 139.215 181.809C139.719 181.704 140.147 181.484 140.499 181.149C140.844 180.803 141.089 180.367 141.232 179.841Z" fill="white"/>
<path d="M147.563 168.176L143.505 168.331L143.111 169.093L146.251 170.715L145.416 172.331L137.36 168.168L138.922 165.144C139.244 164.52 139.63 164.047 140.08 163.724C140.522 163.397 140.987 163.223 141.476 163.202C141.96 163.17 142.434 163.273 142.895 163.512C143.426 163.786 143.828 164.188 144.099 164.719C144.364 165.245 144.419 165.854 144.267 166.546L148.529 166.306L147.563 168.176ZM141.9 168.466L142.597 167.116C142.824 166.677 142.889 166.297 142.793 165.974C142.689 165.647 142.448 165.386 142.071 165.191C141.702 165.001 141.361 164.961 141.05 165.073C140.731 165.181 140.458 165.455 140.231 165.893L139.533 167.244L141.9 168.466Z" fill="white"/>
<path d="M145.813 156.941L147.611 158.332L149.479 155.918L150.62 156.8L148.751 159.215L150.652 160.686L152.759 157.963L153.931 158.869L150.711 163.03L143.528 157.474L146.748 153.312L147.919 154.218L145.813 156.941Z" fill="white"/>
<path d="M164.281 147.428L161.335 149.517L161.847 151.272L160.289 152.377L157.695 143.083L159.423 141.858L167.336 147.379L165.768 148.492L164.281 147.428ZM163.036 146.527L159.771 144.191L160.896 148.045L163.036 146.527Z" fill="white"/>
<path d="M178.024 142.42L176.347 143.124L170.141 138.98L172.549 144.718L170.872 145.422L167.358 137.048L169.035 136.344L175.246 140.501L172.832 134.75L174.509 134.046L178.024 142.42Z" fill="white"/>
<path d="M183.716 131.667C184.654 131.499 185.51 131.534 186.283 131.773C187.065 132.011 187.709 132.437 188.215 133.05C188.729 133.652 189.066 134.401 189.227 135.297C189.388 136.192 189.333 137.011 189.062 137.755C188.798 138.489 188.34 139.104 187.69 139.599C187.049 140.093 186.259 140.424 185.321 140.592L182.201 141.154L180.596 132.228L183.716 131.667ZM184.984 139.082C185.921 138.914 186.6 138.528 187.02 137.924C187.439 137.321 187.565 136.554 187.398 135.625C187.231 134.696 186.845 134.018 186.24 133.59C185.634 133.153 184.861 133.019 183.924 133.188L182.658 133.415L183.718 139.31L184.984 139.082Z" fill="white"/>
<path d="M202.475 132.313L202.208 134.571L205.24 134.929L205.071 136.361L202.039 136.003L201.757 138.39L205.176 138.794L205.003 140.265L199.777 139.648L200.842 130.629L206.068 131.246L205.894 132.717L202.475 132.313Z" fill="white"/>
<path d="M216.374 143.378L214.642 142.82L212.631 135.634L210.722 141.557L208.991 140.999L211.776 132.356L213.507 132.913L215.515 140.112L217.427 134.176L219.158 134.734L216.374 143.378Z" fill="white"/>
<path d="M230.175 140.33L229.453 141.609L227.349 140.42L223.61 147.037L222.027 146.142L225.765 139.525L223.662 138.336L224.384 137.058L230.175 140.33Z" fill="white"/>
<path d="M235.297 145.879L233.847 147.63L236.198 149.577L235.279 150.688L232.927 148.741L231.394 150.592L234.046 152.788L233.102 153.929L229.049 150.573L234.84 143.578L238.893 146.934L237.949 148.074L235.297 145.879Z" fill="white"/>
<path d="M239.023 160.327L240.446 156.523L239.895 155.866L237.187 158.137L236.018 156.743L242.967 150.917L245.154 153.525C245.605 154.062 245.893 154.601 246.017 155.141C246.149 155.675 246.13 156.171 245.96 156.63C245.803 157.089 245.525 157.486 245.127 157.82C244.669 158.204 244.143 158.419 243.549 158.465C242.961 158.506 242.378 158.322 241.799 157.915L240.376 161.94L239.023 160.327ZM240.94 154.99L241.917 156.155C242.234 156.533 242.56 156.74 242.895 156.775C243.237 156.805 243.57 156.684 243.895 156.411C244.214 156.144 244.382 155.846 244.398 155.515C244.422 155.179 244.275 154.822 243.958 154.443L242.981 153.279L240.94 154.99Z" fill="white"/>
<path d="M256.088 172.155L254.739 172.736L253.784 170.516L246.803 173.522L246.084 171.851L253.064 168.846L252.109 166.626L253.457 166.046L256.088 172.155Z" fill="white"/>
<path d="M259.478 185.134L250.597 186.97L250.229 185.189L254.007 184.408L253.221 180.603L249.442 181.385L249.074 179.604L257.954 177.767L258.322 179.548L254.671 180.304L255.458 184.108L259.109 183.352L259.478 185.134Z" fill="white"/>
<path d="M258.617 193.292L256.343 193.314L256.373 196.367L254.931 196.381L254.901 193.328L252.498 193.351L252.532 196.794L251.051 196.809L250.999 191.547L260.08 191.458L260.131 196.72L258.65 196.734L258.617 193.292Z" fill="white"/>
<path d="M255.678 218.567L247.033 215.829L247.583 214.095L253.206 215.876L248.316 211.779L248.732 210.466L255.093 209.919L249.47 208.137L250.019 206.403L258.664 209.142L258.04 211.111L250.741 211.824L256.298 216.61L255.678 218.567Z" fill="white"/>
<path d="M250.667 225.287L248.697 224.153L247.174 226.799L245.924 226.08L247.447 223.434L245.363 222.235L243.647 225.22L242.363 224.481L244.987 219.92L252.858 224.449L250.235 229.01L248.951 228.271L250.667 225.287Z" fill="white"/>
<path d="M243.038 238.383L241.915 237.438L243.47 235.588L237.654 230.696L238.825 229.304L244.641 234.196L246.197 232.347L247.32 233.292L243.038 238.383Z" fill="white"/>
<path d="M229.945 240.255L232.778 238.016L232.176 236.29L233.674 235.105L236.747 244.252L235.086 245.565L226.896 240.463L228.405 239.27L229.945 240.255ZM231.234 241.091L234.616 243.253L233.293 239.463L231.234 241.091Z" fill="white"/>
<path d="M220.11 254.308L219.125 244.699L221.111 243.731L228.074 250.425L226.322 251.279L220.92 245.891L221.85 253.46L220.11 254.308Z" fill="white"/>
<path d="M213.018 255.044L212.426 252.849L209.478 253.645L209.102 252.253L212.05 251.457L211.423 249.136L208.1 250.034L207.713 248.604L212.793 247.233L215.16 256L210.081 257.371L209.695 255.942L213.018 255.044Z" fill="white"/>
<path d="M199.071 249.744L201.355 253.102L202.209 253.032L201.919 249.51L203.732 249.36L204.476 258.398L201.084 258.678C200.385 258.735 199.779 258.659 199.266 258.449C198.754 258.248 198.36 257.946 198.084 257.543C197.799 257.149 197.636 256.694 197.593 256.176C197.544 255.58 197.672 255.026 197.977 254.514C198.284 254.011 198.77 253.641 199.437 253.403L196.973 249.917L199.071 249.744ZM202.321 254.391L200.806 254.516C200.314 254.557 199.957 254.703 199.735 254.956C199.513 255.218 199.419 255.56 199.454 255.983C199.488 256.397 199.635 256.707 199.896 256.911C200.157 257.125 200.533 257.211 201.025 257.17L202.54 257.045L202.321 254.391Z" fill="white"/>
<path d="M189.937 249.403C190.565 249.473 191.121 249.645 191.604 249.917C192.079 250.188 192.441 250.543 192.688 250.98C192.935 251.418 193.032 251.912 192.978 252.464L191.042 252.246C191.058 251.873 190.961 251.566 190.753 251.325C190.536 251.083 190.221 250.938 189.808 250.892C189.387 250.844 189.044 250.906 188.781 251.077C188.517 251.257 188.366 251.51 188.329 251.837C188.299 252.104 188.356 252.332 188.501 252.523C188.645 252.713 188.836 252.87 189.075 252.993C189.305 253.123 189.628 253.273 190.045 253.442C190.611 253.68 191.069 253.901 191.421 254.106C191.763 254.319 192.049 254.608 192.278 254.974C192.497 255.347 192.575 255.818 192.511 256.386C192.451 256.92 192.266 257.369 191.954 257.735C191.643 258.101 191.235 258.36 190.73 258.513C190.223 258.674 189.661 258.719 189.041 258.65C188.111 258.545 187.384 258.233 186.858 257.712C186.323 257.198 186.071 256.534 186.102 255.718L188.09 255.941C188.073 256.253 188.177 256.522 188.405 256.748C188.623 256.982 188.934 257.121 189.338 257.167C189.691 257.206 189.985 257.148 190.221 256.991C190.448 256.834 190.581 256.583 190.619 256.239C190.646 255.998 190.592 255.787 190.455 255.606C190.309 255.432 190.126 255.281 189.905 255.152C189.674 255.03 189.351 254.88 188.935 254.703C188.37 254.465 187.911 254.239 187.56 254.025C187.21 253.812 186.92 253.518 186.692 253.143C186.464 252.769 186.381 252.302 186.444 251.743C186.498 251.261 186.674 250.827 186.97 250.442C187.266 250.057 187.669 249.767 188.179 249.571C188.688 249.384 189.274 249.328 189.937 249.403Z" fill="white"/>
<path d="M178.521 254.966L179.178 252.79L176.256 251.907L176.673 250.526L179.596 251.409L180.291 249.108L176.995 248.113L177.423 246.695L182.46 248.217L179.834 256.91L174.797 255.388L175.225 253.97L178.521 254.966Z" fill="white"/>
<path d="M198 187C197.735 187 197.481 187.105 197.293 187.293C197.106 187.48 197 187.735 197 188V192C197 192.265 197.106 192.52 197.293 192.707C197.481 192.895 197.735 193 198 193C198.266 193 198.52 192.895 198.708 192.707C198.895 192.52 199 192.265 199 192V188C199 187.735 198.895 187.48 198.708 187.293C198.52 187.105 198.266 187 198 187Z" fill="white"/>
<path fill-rule="evenodd" clip-rule="evenodd" d="M190 190C190 187.878 190.843 185.843 192.344 184.343C193.844 182.843 195.879 182 198 182C200.122 182 202.157 182.843 203.657 184.343C205.158 185.843 206 187.878 206 190V198C206 200.122 205.158 202.157 203.657 203.657C202.157 205.157 200.122 206 198 206C195.879 206 193.844 205.157 192.344 203.657C190.843 202.157 190 200.122 190 198V190ZM204 190V198C204 199.591 203.368 201.117 202.243 202.243C201.118 203.368 199.592 204 198 204C196.409 204 194.883 203.368 193.758 202.243C192.633 201.117 192 199.591 192 198V190C192 188.409 192.633 186.883 193.758 185.757C194.883 184.632 196.409 184 198 184C199.592 184 201.118 184.632 202.243 185.757C203.368 186.883 204 188.409 204 190V190Z" fill="white"/>
<defs>
<filter id="filter0_bd_1_3587" x="0.000427246" y="0" width="395" height="395" filterUnits="userSpaceOnUse" color-interpolation-filters="sRGB">
<feFlood flood-opacity="0" result="BackgroundImageFix"/>
<feGaussianBlur in="BackgroundImageFix" stdDeviation="24"/>
<feComposite in2="SourceAlpha" operator="in" result="effect1_backgroundBlur_1_3587"/>
<feColorMatrix in="SourceAlpha" type="matrix" values="0 0 0 0 0 0 0 0 0 0 0 0 0 0 0 0 0 0 127 0" result="hardAlpha"/>
<feOffset dy="4"/>
<feGaussianBlur stdDeviation="60"/>
<feComposite in2="hardAlpha" operator="out"/>
<feColorMatrix type="matrix" values="0 0 0 0 0 0 0 0 0 0 0 0 0 0 0 0 0 0 0.25 0"/>
<feBlend mode="normal" in2="effect1_backgroundBlur_1_3587" result="effect2_dropShadow_1_3587"/>
<feBlend mode="normal" in="SourceGraphic" in2="effect2_dropShadow_1_3587" result="shape"/>
</filter>
</defs>
</svg>
